<?xml version="1.0" encoding="UTF-8" standalone="no"?>
<svg
   width="16"
   height="16"
   fill="currentColor"
   class="bi bi-file-earmark-pdf-fill"
   viewBox="0 0 16 16"
   version="1.1"
   id="svg2"
   sodipodi:docname="icon.svg"
   inkscape:version="1.4.2 (f4327f4, 2025-05-13)"
   inkscape:export-filename="icon.png"
   inkscape:export-xdpi="1536"
   inkscape:export-ydpi="1536"
   xmlns:inkscape="http://www.inkscape.org/namespaces/inkscape"
   xmlns:sodipodi="http://sodipodi.sourceforge.net/DTD/sodipodi-0.dtd"
   xmlns="http://www.w3.org/2000/svg"
   xmlns:svg="http://www.w3.org/2000/svg">
  <defs
     id="defs2" />
  <sodipodi:namedview
     id="namedview2"
     pagecolor="#ffffff"
     bordercolor="#000000"
     borderopacity="0.25"
     inkscape:showpageshadow="2"
     inkscape:pageopacity="0.0"
     inkscape:pagecheckerboard="0"
     inkscape:deskcolor="#d1d1d1"
     inkscape:zoom="36.625"
     inkscape:cx="7.9863481"
     inkscape:cy="7.9863481"
     inkscape:window-width="2560"
     inkscape:window-height="1369"
     inkscape:window-x="-8"
     inkscape:window-y="-8"
     inkscape:window-maximized="1"
     inkscape:current-layer="svg2" />
  <path
     id="path1"
     style="fill:#1985ea;fill-opacity:1"
     d="M 4 0 A 2 2 0 0 0 2 2 L 2 14 A 2 2 0 0 0 4 16 L 12 16 A 2 2 0 0 0 14 14 L 14 4.7070312 A 1 1 0 0 0 13.707031 4 L 10 0.29296875 A 1 1 0 0 0 9.2929688 0 L 4 0 z M 9.5 1.5 L 12.5 4.5 L 10.5 4.5 A 1 1 0 0 1 9.5 3.5 L 9.5 1.5 z M 8.3105469 5.5585938 C 8.3614375 5.5594063 8.4123906 5.5634688 8.4628906 5.5742188 A 0.7 0.7 0 0 1 8.9394531 5.9394531 A 1.24 1.24 0 0 1 9.0664062 6.4785156 C 9.0734062 6.6665156 9.0535781 6.8737969 9.0175781 7.0917969 C 8.9345781 7.6017969 8.7480469 8.2267187 8.4980469 8.8867188 A 11 11 0 0 0 9.4785156 10.572266 A 5.8 5.8 0 0 1 10.8125 10.621094 C 11.1765 10.686094 11.547437 10.817891 11.773438 11.087891 A 0.84 0.84 0 0 1 11.972656 11.605469 C 11.979656 11.798469 11.925937 11.986969 11.835938 12.167969 C 11.751937 12.336969 11.635469 12.482984 11.480469 12.583984 A 0.86 0.86 0 0 1 10.970703 12.722656 C 10.639703 12.708656 10.317109 12.524688 10.037109 12.304688 C 9.7371094 12.067687 9.4269531 11.738469 9.1269531 11.355469 A 11.7 11.7 0 0 0 7.1308594 11.761719 C 6.7928594 12.344719 6.442375 12.870484 6.109375 13.271484 C 5.818375 13.621484 5.5015937 13.926641 5.1835938 14.056641 C 5.0155937 14.126641 4.8105156 14.162891 4.6035156 14.087891 C 4.3955156 14.011891 4.2540625 13.847969 4.1640625 13.667969 C 3.9690625 13.278969 4.0341406 12.890453 4.2441406 12.564453 C 4.4421406 12.257453 4.7725781 11.997344 5.1425781 11.777344 A 7.7 7.7 0 0 1 6.6230469 11.132812 A 20 20 0 0 0 7.6855469 8.90625 C 7.4935469 8.45925 7.3438594 8.0173281 7.2558594 7.6113281 C 7.1698594 7.2113281 7.1379375 6.8146094 7.2109375 6.4746094 C 7.2859375 6.1216094 7.4843281 5.8023438 7.8613281 5.6523438 C 8.0045781 5.5945938 8.157875 5.5561562 8.3105469 5.5585938 z M 8.2832031 6.3085938 A 0.5 0.5 0 0 0 8.1386719 6.3476562 C 8.0526719 6.3826562 7.9813594 6.4538594 7.9433594 6.6308594 C 7.9023594 6.8228594 7.9122813 7.100125 7.9882812 7.453125 A 5 5 0 0 0 8.078125 7.7988281 C 8.170125 7.4938281 8.2373438 7.2147031 8.2773438 6.9707031 C 8.3080104 6.7827031 8.3217396 6.6278594 8.3164062 6.5058594 C 8.3124063 6.3998594 8.2962031 6.3385938 8.2832031 6.3085938 z M 8.1210938 9.8046875 A 21 21 0 0 1 7.6210938 10.855469 C 7.7397604 10.828135 7.859849 10.80201 7.9785156 10.777344 C 8.1971823 10.733344 8.4154792 10.694109 8.6328125 10.662109 A 12 12 0 0 1 8.1210938 9.8046875 z M 10.068359 11.306641 A 4 4 0 0 0 10.503906 11.716797 C 10.743906 11.906797 10.911953 11.969656 11.001953 11.972656 A 0.1 0.1 0 0 0 11.070312 11.957031 A 0.3 0.3 0 0 0 11.164062 11.832031 A 0.44 0.44 0 0 0 11.224609 11.632812 A 0.1 0.1 0 0 0 11.197266 11.568359 C 11.145266 11.506359 10.996688 11.416375 10.679688 11.359375 C 10.501021 11.328042 10.297693 11.311307 10.068359 11.306641 z M 5.9824219 12.185547 C 5.8164219 12.261547 5.6634375 12.341161 5.5234375 12.423828 C 5.1954375 12.617828 4.9829531 12.807656 4.8769531 12.972656 C 4.7829531 13.116656 4.7799375 13.222031 4.8359375 13.332031 A 0.3 0.3 0 0 0 4.8613281 13.376953 L 4.8964844 13.363281 C 5.0334844 13.307281 5.25125 13.129969 5.53125 12.792969 A 8 8 0 0 0 5.9824219 12.185547 z " />
</svg>
